# xmcd
#
# Track frame offsets: 
#        183
#        11198
#        23685
#        36445
#        46665
#        55758
#        71438
#        82480
#        94325
#        108630
#        120258
#        131328
#        146348
#        155865
#        171300
#        182720
#        196210
#        208625
#        223433
#        239338
#        250280
#        270898
#
# Disc length: 3900 seconds
#
# Revision: 3
# Processed by: cddbd v1.5.2PL0 Copyright (c) Steve Scherf et al.
# Submitted via: ExactAudioCopy v1.0b1
#
DISCID=430f3a16
DTITLE=Sonny Boy Williamson II - The Chess Years - Disc 3
DYEAR=1991
DGENRE=Blues
TTITLE0=Stop Right Now (mono)
TTITLE1=The Hunt (mono)
TTITLE2=Too Old To Think (mono)
TTITLE3=That's All I Want (mono)
TTITLE4=One Way Out (1961) (mono)
TTITLE5=Nine Below Zero (mono)
TTITLE6=Got To Move (mono)
TTITLE7=Bye Bye Bird (mono)
TTITLE8=Help Me (mono)
TTITLE9=Bring It On Home (mono)
TTITLE10=One Way Out (1963) (mono)
TTITLE11=My Younger Days (mono)
TTITLE12=Tryin' To Get Back On My Feet (mono)
TTITLE13=Decoration Day (mono)
TTITLE14=Stop Cryin' (mono)
TTITLE15=I Want You Close To Me (mono)
TTITLE16=One Way Out (1964) (mono)
TTITLE17=I Can't Be Alone (mono)
TTITLE18=Don't Make A Mistake (stereo)
TTITLE19=Understand My Life (mono)
TTITLE20=Find Another Woman (mono)
TTITLE21=My Name Is Sonny Boy (stereo)
EXTD=
EXTT0=
EXTT1=
EXTT2=
EXTT3=
EXTT4=
EXTT5=
EXTT6=
EXTT7=
EXTT8=
EXTT9=
EXTT10=
EXTT11=
EXTT12=
EXTT13=
EXTT14=
EXTT15=
EXTT16=
EXTT17=
EXTT18=
EXTT19=
EXTT20=
EXTT21=
PLAYORDER=
